<?xml version="1.0" encoding="UTF-8"?>
<svg version="1.1" xmlns="http://www.w3.org/2000/svg" width="160" height="56">
<path d="M0 0 C52.8 0 105.6 0 160 0 C160 18.48 160 36.96 160 56 C107.2 56 54.4 56 0 56 C0 37.52 0 19.04 0 0 Z " fill="#F6F7F8" transform="translate(0,0)"/>
<path d="M0 0 C1.98085062 0.99818321 3.94046585 2.03977352 5.875 3.125 C6.84179688 3.66382813 7.80859375 4.20265625 8.8046875 4.7578125 C9.89136719 5.37269531 9.89136719 5.37269531 11 6 C11 6.66 11 7.32 11 8 C9.35 8.66 7.7 9.32 6 10 C7.63412443 11.70840281 8.86906094 12.93453047 11 14 C11 14.66 11 15.32 11 16 C8.63720346 17.40084375 6.26368775 18.76962099 3.875 20.125 C3.20984375 20.52332031 2.5446875 20.92164062 1.859375 21.33203125 C-1.5470397 23.23561594 -3.18654516 24.14642187 -7.125 23.4375 C-10.07459034 21.96270483 -12.99847383 20.48866102 -15.875 18.875 C-16.84179688 18.33617188 -17.80859375 17.79734375 -18.8046875 17.2421875 C-19.52914063 16.83226563 -20.25359375 16.42234375 -21 16 C-20.505 14.515 -20.505 14.515 -20 13 C-17.9375 12.3125 -17.9375 12.3125 -16 12 C-16 11.34 -16 10.68 -16 10 C-18.475 9.01 -18.475 9.01 -21 8 C-19.62866377 3.8859913 -16.9743763 3.02777015 -13.3125 1.1875 C-12.69955078 0.85041016 -12.08660156 0.51332031 -11.45507812 0.16601562 C-6.88187927 -2.15695601 -4.58111545 -2.19524593 0 0 Z " fill="#323233" transform="translate(31,17)"/>
<path d="M0 0 C2.72103626 1.24134866 5.37480151 2.56746783 8 4 C8 4.66 8 5.32 8 6 C-0.7091222 10.97418244 -0.7091222 10.97418244 -5.125 11.0625 C-8.91319079 9.66251645 -12.45732512 7.93318553 -16 6 C-16 5.34 -16 4.68 -16 4 C-5.46218487 -2.01863354 -5.46218487 -2.01863354 0 0 Z " fill="#F3F4F5" transform="translate(30,19)"/>
<path d="M0 0 C1.60875 -0.04125 3.2175 -0.0825 4.875 -0.125 C5.77992187 -0.14820312 6.68484375 -0.17140625 7.6171875 -0.1953125 C10 0 10 0 12 2 C12.3125 5.5 12.3125 5.5 12 9 C8.5647952 11.29013653 7.014669 11.17842973 3 11 C3 12.98 3 14.96 3 17 C2.01 17 1.02 17 0 17 C0 11.39 0 5.78 0 0 Z " fill="#525252" transform="translate(119,18)"/>
<path d="M0 0 C1.60875 -0.04125 3.2175 -0.0825 4.875 -0.125 C5.77992188 -0.14820312 6.68484375 -0.17140625 7.6171875 -0.1953125 C10 0 10 0 12 2 C12.375 4.9375 12.375 4.9375 12 8 C10.375 9.875 10.375 9.875 8 11 C4.75 11.1875 4.75 11.1875 2 11 C2 12.98 2 14.96 2 17 C1.34 17 0.68 17 0 17 C0 11.39 0 5.78 0 0 Z " fill="#2E2E2E" transform="translate(135,18)"/>
<path d="M0 0 C1.32 0 2.64 0 4 0 C4.84161854 2.08000011 5.67300763 4.16414146 6.5 6.25 C6.9640625 7.41015625 7.428125 8.5703125 7.90625 9.765625 C9 13 9 13 9 17 C8.01 17 7.02 17 6 17 C5.67 15.68 5.34 14.36 5 13 C2.69 12.67 0.38 12.34 -2 12 C-2.33 13.65 -2.66 15.3 -3 17 C-3.99 17 -4.98 17 -6 17 C-4.33846988 11.14340094 -2.52958084 5.5409866 0 0 Z " fill="#444545" transform="translate(107,18)"/>
<path d="M0 0 C1.98085062 0.99818321 3.94046585 2.03977352 5.875 3.125 C6.84179688 3.66382813 7.80859375 4.20265625 8.8046875 4.7578125 C9.89136719 5.37269531 9.89136719 5.37269531 11 6 C11 6.66 11 7.32 11 8 C9.35 8.66 7.7 9.32 6 10 C6 10.66 6 11.32 6 12 C5.34 12 4.68 12 4 12 C3.67 11.01 3.34 10.02 3 9 C4.32 8.67 5.64 8.34 7 8 C7 7.34 7 6.68 7 6 C5.63875 5.566875 5.63875 5.566875 4.25 5.125 C1 4 1 4 -1 2.8125 C-3.97753166 1.60287776 -5.92365299 2.20014978 -9 3 C-11.01526169 3.96887581 -13.01833966 4.9641321 -15 6 C-15.66 6 -16.32 6 -17 6 C-17 6.66 -17 7.32 -17 8 C-15.68 8.66 -14.36 9.32 -13 10 C-13.66 10 -14.32 10 -15 10 C-15.33 10.66 -15.66 11.32 -16 12 C-16 11.34 -16 10.68 -16 10 C-18.475 9.01 -18.475 9.01 -21 8 C-19.62866377 3.8859913 -16.9743763 3.02777015 -13.3125 1.1875 C-12.69955078 0.85041016 -12.08660156 0.51332031 -11.45507812 0.16601562 C-6.88187927 -2.15695601 -4.58111545 -2.19524593 0 0 Z " fill="#424242" transform="translate(31,17)"/>
<path d="M0 0 C1.375 2.0625 1.375 2.0625 2 4 C1.01 4 0.02 4 -1 4 C-1 3.34 -1 2.68 -1 2 C-2.98 2.33 -4.96 2.66 -7 3 C-6.67 3.99 -6.34 4.98 -6 6 C-3.69747517 7.06902939 -1.3627974 8.07175817 1 9 C2 10 2 10 2.25 12.4375 C2.1675 13.283125 2.085 14.12875 2 15 C-1.69486103 17.46324069 -3.63293092 17.38991688 -8 17 C-9.9375 15.625 -9.9375 15.625 -11 14 C-11 13.34 -11 12.68 -11 12 C-10.01 12 -9.02 12 -8 12 C-7.67 12.66 -7.34 13.32 -7 14 C-5.35 14 -3.7 14 -2 14 C-1.67 13.01 -1.34 12.02 -1 11 C-5.455 9.02 -5.455 9.02 -10 7 C-10.25 4.6875 -10.25 4.6875 -10 2 C-6.92190683 -1.55164597 -4.31816068 -1.40809588 0 0 Z " fill="#3B3B3C" transform="translate(65,18)"/>
<path d="M0 0 C1.875 1.4375 1.875 1.4375 3 3 C3 3.66 3 4.32 3 5 C2.46375 4.67 1.9275 4.34 1.375 4 C-1.5391061 2.77300796 -3.86867708 2.85766714 -7 3 C-8.50662097 6.01324195 -8.17770373 8.68286377 -8 12 C-6.10244856 14.34973818 -6.10244856 14.34973818 -2.875 14.125 C-1.451875 14.063125 -1.451875 14.063125 0 14 C0.33 13.01 0.66 12.02 1 11 C1.66 11 2.32 11 3 11 C2.42655063 13.86724686 2.1385485 14.8614515 0 17 C-4.02104757 17.44678306 -6.13756416 17.6808704 -9.375 15.125 C-12.06463552 11.60778432 -12.43467763 9.43371186 -12 5 C-8.35914681 -0.46127979 -6.39074627 -1.56508072 0 0 Z " fill="#434343" transform="translate(96,18)"/>
<path d="M0 0 C3.3 0 6.6 0 10 0 C10 0.66 10 1.32 10 2 C7.36 2 4.72 2 2 2 C2 3.65 2 5.3 2 7 C4.64 7 7.28 7 10 7 C10 7.66 10 8.32 10 9 C7.36 9 4.72 9 2 9 C2 10.98 2 12.96 2 15 C4.64 15 7.28 15 10 15 C10 15.66 10 16.32 10 17 C6.7 17 3.4 17 0 17 C0 11.39 0 5.78 0 0 Z " fill="#333334" transform="translate(71,18)"/>
<path d="M0 0 C2.3125 0 2.3125 0 5 1 C7.29999927 4.92617063 8 8.47408842 8 13 C7.01 13 6.02 13 5 13 C4.773125 12.195625 4.54625 11.39125 4.3125 10.5625 C3.879375 9.716875 3.44625 8.87125 3 8 C0.45224694 7.10613836 0.45224694 7.10613836 -2 7 C-1.34 4.69 -0.68 2.38 0 0 Z " fill="#484949" transform="translate(108,22)"/>
<path d="M0 0 C-2.34109882 1.56073255 -4.56333403 2.86373867 -7.0625 4.125 C-8.10083984 4.65480469 -8.10083984 4.65480469 -9.16015625 5.1953125 C-11 6 -11 6 -13 6 C-13 6.66 -13 7.32 -13 8 C-11.68 8.66 -10.36 9.32 -9 10 C-9.66 10 -10.32 10 -11 10 C-11.33 10.66 -11.66 11.32 -12 12 C-12 11.34 -12 10.68 -12 10 C-14.475 9.01 -14.475 9.01 -17 8 C-16 5 -16 5 -13.92578125 3.61328125 C-5.27282955 -0.69379336 -5.27282955 -0.69379336 0 0 Z " fill="#4A4B4B" transform="translate(27,17)"/>
<path d="M0 0 C1.99954746 -0.04254356 4.00041636 -0.04080783 6 0 C7 1 7 1 7.0625 3.5625 C7.041875 4.366875 7.02125 5.17125 7 6 C4.69 6.33 2.38 6.66 0 7 C0 4.69 0 2.38 0 0 Z " fill="#E5E6E6" transform="translate(137,20)"/>
<path d="M0 0 C1.98 0 3.96 0 6 0 C6.625 2.375 6.625 2.375 7 5 C5 7 5 7 2.375 7.125 C1.59125 7.08375 0.8075 7.0425 0 7 C0 4.69 0 2.38 0 0 Z " fill="#E7E8E9" transform="translate(122,20)"/>
<path d="M0 0 C6.8359375 -0.1953125 6.8359375 -0.1953125 9 0 C11 2 11 2 11.125 4.625 C11.08375 5.40875 11.0425 6.1925 11 7 C10.34 7 9.68 7 9 7 C8.67 5.68 8.34 4.36 8 3 C5.69 2.67 3.38 2.34 1 2 C1 4.31 1 6.62 1 9 C0.67 9 0.34 9 0 9 C0 6.03 0 3.06 0 0 Z " fill="#303030" transform="translate(120,18)"/>
<path d="M0 0 C1 1 1 1 1.0625 4.0625 C1.041875 5.031875 1.02125 6.00125 1 7 C0.01 6.67 -0.98 6.34 -2 6 C-2.6875 3.9375 -2.6875 3.9375 -3 2 C-5.97 1.505 -5.97 1.505 -9 1 C-9 0.67 -9 0.34 -9 0 C-5.63861721 -0.8403457 -3.29612199 -1.17718642 0 0 Z " fill="#4D4D4E" transform="translate(146,19)"/>
<path d="M0 0 C2.875 0.25 2.875 0.25 6 1 C7.375 3.0625 7.375 3.0625 8 5 C7.01 5 6.02 5 5 5 C5 4.34 5 3.68 5 3 C3.35 3 1.7 3 0 3 C0 2.01 0 1.02 0 0 Z " fill="#4F4F50" transform="translate(59,17)"/>
<path d="M0 0 C3.125 0.375 3.125 0.375 6 1 C6 1.33 6 1.66 6 2 C4.02 2 2.04 2 0 2 C-0.33 3.65 -0.66 5.3 -1 7 C-1.99 7 -2.98 7 -4 7 C-2.92598892 4.08482708 -2.22189824 2.22189824 0 0 Z " fill="#3D3D3E" transform="translate(105,28)"/>
<path d="M0 0 C0.66 0 1.32 0 2 0 C2.33 1.98 2.66 3.96 3 6 C1.35 6 -0.3 6 -2 6 C-1.34 4.02 -0.68 2.04 0 0 Z " fill="#DEDFE0" transform="translate(108,22)"/>
<path d="M0 0 C0.33 0 0.66 0 1 0 C1.1875 2.375 1.1875 2.375 1 5 C-2.4352048 7.29013653 -3.985331 7.17842973 -8 7 C-8 6.67 -8 6.34 -8 6 C-6.35 6 -4.7 6 -3 6 C-3 5.34 -3 4.68 -3 4 C-2.34 3.67 -1.68 3.34 -1 3 C-0.67 2.01 -0.34 1.02 0 0 Z " fill="#383839" transform="translate(145,22)"/>
</svg>
